<?xml version="1.0" standalone="no"?>
<!DOCTYPE svg PUBLIC "-//W3C//DTD SVG 20010904//EN"
 "http://www.w3.org/TR/2001/REC-SVG-20010904/DTD/svg10.dtd">
<svg version="1.0" xmlns="http://www.w3.org/2000/svg"
 width="600.000000pt" height="635.000000pt" viewBox="0 0 600.000000 635.000000"
 preserveAspectRatio="xMidYMid meet">

<g transform="translate(0.000000,635.000000) scale(0.100000,-0.100000)"
fill="#000000" stroke="none">
<path d="M845 6059 c-78 -11 -187 -44 -249 -76 -61 -31 -140 -104 -172 -159
-79 -134 -110 -403 -107 -906 2 -223 6 -305 34 -688 7 -99 9 -239 5 -385 -9
-292 -9 -290 16 -475 39 -273 25 -607 -33 -835 -13 -50 -23 -125 -25 -200 -5
-133 -19 -230 -69 -475 -47 -232 -85 -475 -85 -546 0 -63 18 -220 44 -389 13
-85 24 -117 73 -214 63 -125 107 -185 245 -334 123 -134 137 -141 291 -167 70
-12 133 -19 140 -16 7 2 4 5 -6 5 -23 1 -97 39 -97 50 0 23 45 29 290 40 327
15 402 24 415 47 6 10 46 52 90 93 412 388 701 799 761 1081 16 74 18 196 4
255 -5 22 -8 41 -6 42 2 2 32 -45 69 -104 72 -119 180 -268 276 -383 71 -85
222 -242 227 -237 8 7 -110 168 -229 313 -68 83 -144 182 -170 222 -95 142
-156 303 -157 417 -1 62 -14 37 -25 -50 l-8 -60 -12 71 c-11 63 -47 164 -58
164 -3 0 -1 -17 3 -38 14 -67 21 -202 11 -202 -21 0 -141 136 -173 194 l-33
61 -3 -53 c-2 -28 -5 -52 -8 -52 -16 0 -97 68 -118 99 -40 58 -81 181 -60 181
4 0 40 -25 81 -55 42 -32 73 -50 73 -42 0 33 -50 83 -134 133 -49 29 -104 68
-123 86 -62 59 -118 196 -159 388 -28 131 -26 428 5 570 52 242 133 419 292
635 21 28 21 28 -15 -5 -114 -106 -237 -324 -317 -560 -61 -183 -69 -179 -32
15 53 281 268 594 591 864 373 312 590 394 1190 451 392 37 723 -147 994 -550
78 -115 210 -376 275 -540 138 -353 147 -657 26 -882 -32 -58 -313 -422 -320
-414 -1 1 2 29 7 62 14 83 12 246 -4 327 -17 89 -26 95 -26 16 0 -228 -80
-671 -160 -892 -100 -274 -266 -390 -535 -372 -400 25 -652 103 -794 243 -77
77 -117 142 -177 291 -24 58 -43 99 -44 90 0 -9 -8 -27 -18 -38 -17 -22 -18
-21 -99 111 -45 73 -111 185 -147 248 -87 152 -88 154 -81 105 3 -22 23 -76
45 -120 l39 -80 -44 48 c-24 26 -53 72 -64 103 -21 54 -29 154 -13 154 20 0
103 -64 135 -104 20 -24 64 -88 98 -142 79 -127 127 -184 187 -223 45 -29 142
-57 142 -42 0 4 -14 20 -31 37 -51 48 -118 159 -150 244 -16 44 -29 83 -29 85
0 3 15 -3 34 -12 32 -15 37 -15 61 1 36 23 46 54 30 91 -8 17 -30 66 -49 111
-114 257 -119 602 -12 836 l24 53 1 -40 c1 -68 -19 -265 -39 -365 -10 -52 -16
-97 -15 -99 8 -7 93 136 118 199 15 36 34 94 42 130 15 68 21 286 6 260 -4 -8
-23 -75 -41 -147 -18 -73 -34 -133 -37 -133 -3 0 -2 82 2 183 7 207 8 206 -65
65 -87 -167 -124 -324 -123 -528 0 -190 33 -332 114 -494 45 -90 32 -85 -44
18 -73 97 -120 178 -155 264 -35 88 -42 96 -42 49 0 -92 40 -199 106 -286 39
-51 44 -93 14 -114 -21 -14 -20 -14 4 -64 24 -46 46 -121 45 -153 0 -26 -28
18 -79 125 -52 108 -96 235 -181 527 -30 103 -57 188 -61 188 -3 0 -4 -19 -2
-42 19 -177 53 -313 109 -436 20 -41 33 -77 31 -79 -2 -2 -45 17 -96 42 -69
34 -95 44 -104 35 -6 -6 -11 -43 -11 -83 0 -100 37 -173 150 -297 106 -116
150 -170 137 -170 -5 0 -17 10 -28 21 -37 42 -144 110 -240 155 -176 80 -188
88 -271 170 -46 45 -83 79 -83 76 0 -16 68 -118 108 -163 75 -84 114 -107 165
-102 60 7 115 -19 202 -94 39 -33 108 -82 155 -107 47 -26 96 -57 108 -69 13
-12 62 -79 109 -149 130 -196 249 -291 446 -356 138 -46 251 -63 460 -69 103
-3 187 -9 187 -14 0 -4 -15 -79 -34 -166 -70 -321 -156 -828 -156 -919 0 -41
30 -97 45 -83 3 4 10 35 15 70 l9 64 -4 -65 c-2 -36 -1 -76 1 -90 l5 -25 332
1 c183 0 456 4 608 9 255 7 284 6 400 -13 174 -29 202 -32 306 -33 184 -1 285
60 382 231 37 66 54 107 60 152 5 35 17 86 25 113 18 58 21 259 5 370 -5 39
-14 115 -19 170 -5 55 -21 174 -35 265 -36 224 -42 292 -55 605 -6 149 -13
280 -15 293 -10 42 -5 688 5 788 23 232 34 541 36 1029 1 537 5 649 29 870 26
238 27 259 15 324 -6 36 -24 92 -39 126 -24 52 -36 66 -92 102 -144 94 -450
188 -659 203 -203 15 -528 30 -785 35 -132 3 -301 10 -375 15 -74 5 -180 12
-235 16 -55 3 -107 10 -116 15 -31 16 -378 23 -468 9 -79 -12 -135 -39 -118
-56 5 -5 42 -10 84 -11 41 -1 77 -4 79 -6 2 -2 -21 -10 -51 -17 -57 -14 -173
-12 -665 11 -118 5 -280 12 -360 15 -133 5 -502 56 -613 85 -138 36 -352 48
-492 28z m825 -879 c0 -5 -5 -10 -11 -10 -5 0 -7 5 -4 10 3 6 8 10 11 10 2 0
4 -4 4 -10z m629 -644 c-2 -2 -42 -32 -87 -66 -83 -61 -230 -200 -312 -295
-24 -27 -37 -41 -30 -30 8 11 25 32 37 46 13 14 23 30 21 35 -2 5 0 9 4 9 13
0 77 68 72 77 -3 5 0 7 8 6 7 -2 12 4 10 12 -2 8 0 12 4 8 9 -10 100 73 96 87
-2 6 0 7 4 2 4 -4 19 3 33 17 28 25 130 96 139 96 3 0 3 -2 1 -4z m-454 -443
c-35 -54 -110 -149 -89 -113 19 33 96 140 101 140 3 0 -3 -12 -12 -27z m-110
-163 c-9 -16 -18 -30 -21 -30 -2 0 2 14 11 30 9 17 18 30 21 30 2 0 -2 -13
-11 -30z m-52 -95 c-15 -30 -29 -53 -31 -51 -4 5 46 106 53 106 3 0 -7 -25
-22 -55z m-75 -176 c-6 -16 -12 -28 -14 -26 -5 5 13 57 20 57 3 0 0 -14 -6
-31z m-34 -103 c-3 -15 -8 -25 -11 -23 -2 3 -1 17 3 31 3 15 8 25 11 23 2 -3
1 -17 -3 -31z m-17 -58 c-3 -8 -6 -5 -6 6 -1 11 2 17 5 13 3 -3 4 -12 1 -19z
m-10 -40 c-3 -8 -6 -5 -6 6 -1 11 2 17 5 13 3 -3 4 -12 1 -19z m-10 -40 c-3
-8 -6 -5 -6 6 -1 11 2 17 5 13 3 -3 4 -12 1 -19z m-10 -60 c-3 -7 -5 -2 -5 12
0 14 2 19 5 13 2 -7 2 -19 0 -25z m-10 -75 c-3 -10 -5 -2 -5 17 0 19 2 27 5
18 2 -10 2 -26 0 -35z m91 -145 c-3 -73 -10 -99 -24 -85 -10 10 -10 169 0 202
l9 30 9 -35 c6 -19 8 -70 6 -112z m-101 0 c-2 -24 -4 -7 -4 37 0 44 2 63 4 43
2 -21 2 -57 0 -80z m74 -155 c33 -54 18 -46 -19 10 -18 27 -26 44 -17 37 8 -7
24 -28 36 -47z m48 -123 c0 -8 -7 1 -14 20 -18 46 -17 64 0 25 8 -16 14 -37
14 -45z m8 -42 c-3 -8 -6 -5 -6 6 -1 11 2 17 5 13 3 -3 4 -12 1 -19z m10 -55
c-3 -10 -5 -4 -5 12 0 17 2 24 5 18 2 -7 2 -21 0 -30z m10 -55 c-3 -7 -5 -2
-5 12 0 14 2 19 5 13 2 -7 2 -19 0 -25z m10 -60 c-3 -7 -5 -2 -5 12 0 14 2 19
5 13 2 -7 2 -19 0 -25z m10 -40 c-3 -8 -6 -5 -6 6 -1 11 2 17 5 13 3 -3 4 -12
1 -19z m10 -40 c-3 -8 -6 -5 -6 6 -1 11 2 17 5 13 3 -3 4 -12 1 -19z m81 -152
c10 -11 11 -16 4 -12 -17 10 -72 95 -72 110 0 6 12 -9 26 -34 14 -25 33 -54
42 -64z m83 -24 c16 -25 29 -51 29 -56 0 -6 -14 13 -30 42 -17 28 -35 52 -40
52 -6 0 -10 5 -10 11 0 18 21 -2 51 -49z m49 -107 c0 -5 -5 -3 -10 5 -5 8 -10
20 -10 25 0 6 5 3 10 -5 5 -8 10 -19 10 -25z m30 -80 c0 -5 -5 -3 -10 5 -5 8
-10 20 -10 25 0 6 5 3 10 -5 5 -8 10 -19 10 -25z m24 -55 l17 -35 -20 25 c-11
14 -21 31 -21 39 0 18 4 14 24 -29z m212 -151 c3 -5 -7 -4 -23 3 -41 17 -53
30 -15 17 18 -6 35 -15 38 -20z m96 -77 c25 -27 53 -63 62 -80 27 -53 17 -50
-13 4 -17 28 -54 73 -83 99 -29 26 -44 43 -33 37 12 -6 42 -33 67 -60z m95
-184 c-3 -8 -6 -5 -6 6 -1 11 2 17 5 13 3 -3 4 -12 1 -19z m10 -70 c-2 -13 -4
-5 -4 17 -1 22 1 32 4 23 2 -10 2 -28 0 -40z m0 -100 c-2 -13 -4 -3 -4 22 0
25 2 35 4 23 2 -13 2 -33 0 -45z m-10 -50 c-3 -8 -6 -5 -6 6 -1 11 2 17 5 13
3 -3 4 -12 1 -19z m-28 -92 c-28 -77 -33 -67 -6 12 12 34 23 58 25 53 1 -4 -7
-34 -19 -65z m1478 -88 c-3 -7 -5 -2 -5 12 0 14 2 19 5 13 2 -7 2 -19 0 -25z
m-10 -40 c-3 -8 -6 -5 -6 6 -1 11 2 17 5 13 3 -3 4 -12 1 -19z m-1597 -125
c-54 -90 -139 -213 -146 -213 -2 0 29 49 69 109 40 59 84 129 97 154 13 25 26
44 29 42 2 -3 -20 -44 -49 -92z m1587 65 c-3 -7 -5 -2 -5 12 0 14 2 19 5 13 2
-7 2 -19 0 -25z m-10 -50 c-3 -7 -5 -2 -5 12 0 14 2 19 5 13 2 -7 2 -19 0 -25z
m-10 -50 c-3 -7 -5 -2 -5 12 0 14 2 19 5 13 2 -7 2 -19 0 -25z m-10 -55 c-3
-10 -5 -4 -5 12 0 17 2 24 5 18 2 -7 2 -21 0 -30z m-10 -60 c-3 -10 -5 -4 -5
12 0 17 2 24 5 18 2 -7 2 -21 0 -30z m-10 -60 c-3 -10 -5 -4 -5 12 0 17 2 24
5 18 2 -7 2 -21 0 -30z m-10 -60 c-3 -10 -5 -4 -5 12 0 17 2 24 5 18 2 -7 2
-21 0 -30z m-10 -70 c-3 -10 -5 -2 -5 17 0 19 2 27 5 18 2 -10 2 -26 0 -35z
m-1755 -10 c-17 -21 -43 -49 -58 -63 -15 -14 -4 3 26 38 58 68 80 85 32 25z
m1745 -60 c-3 -10 -5 -2 -5 17 0 19 2 27 5 18 2 -10 2 -26 0 -35z m-10 -75
c-2 -13 -4 -5 -4 17 -1 22 1 32 4 23 2 -10 2 -28 0 -40z m-10 -80 c-2 -13 -4
-5 -4 17 -1 22 1 32 4 23 2 -10 2 -28 0 -40z m-10 -90 c-2 -13 -4 -3 -4 22 0
25 2 35 4 23 2 -13 2 -33 0 -45z"/>
<path d="M3480 4732 c0 -17 57 -61 150 -117 230 -139 371 -289 500 -534 36
-68 70 -125 75 -125 38 -3 -24 145 -122 292 -67 102 -201 244 -297 315 -112
85 -306 192 -306 169z"/>
<path d="M3759 4678 c-10 -7 -11 -11 -2 -14 47 -20 209 -140 284 -211 144
-137 228 -274 265 -428 26 -108 23 -103 40 -80 12 15 14 34 9 75 -23 189 -218
447 -457 606 -76 51 -118 67 -139 52z"/>
<path d="M3164 4656 c-3 -8 18 -60 46 -117 62 -122 111 -269 135 -399 22 -124
23 -126 37 -112 39 39 -36 343 -134 540 -48 96 -71 121 -84 88z"/>
<path d="M3066 4628 c-9 -36 -7 -209 4 -295 28 -208 65 -341 111 -399 16 -20
29 -34 29 -32 0 3 -15 66 -34 140 -41 159 -64 307 -74 477 -4 77 -11 126 -18
128 -6 2 -14 -6 -18 -19z"/>
<path d="M2861 4612 c-17 -32 25 -287 69 -422 30 -91 69 -160 152 -270 101
-135 122 -185 122 -285 0 -65 -4 -90 -26 -135 -14 -30 -33 -64 -41 -75 -15
-19 -16 -14 -10 61 7 92 -5 231 -17 199 -4 -11 -17 -75 -30 -143 -21 -118 -22
-124 -5 -142 10 -11 30 -20 45 -20 53 0 101 83 118 205 l7 49 62 -97 c66 -103
70 -105 141 -91 24 5 31 12 36 38 6 34 55 116 68 116 5 0 8 -7 8 -15 0 -50 91
-154 123 -142 8 3 17 28 21 59 14 103 15 105 45 41 l28 -58 6 40 c10 61 8 163
-3 170 -6 3 -10 -5 -10 -19 0 -58 -13 -56 -34 7 -19 56 -72 145 -81 135 -2 -2
3 -34 11 -73 19 -98 16 -256 -5 -255 -3 1 -35 51 -70 112 l-65 112 -13 -58
c-7 -31 -19 -68 -26 -83 -14 -25 -14 -24 -48 56 -19 44 -37 81 -41 81 -20 0
-17 -46 8 -101 34 -75 37 -144 5 -125 -41 26 -378 575 -422 690 -34 88 -71
242 -90 374 -11 83 -20 97 -38 64z"/>
<path d="M2663 4600 c-76 -17 -189 -112 -306 -257 -59 -72 -161 -233 -153
-240 13 -13 69 45 156 162 103 137 190 226 277 281 74 48 83 66 26 54z"/>
<path d="M3506 4513 c80 -94 153 -211 195 -312 33 -79 79 -247 79 -288 0 -15
5 -23 13 -21 33 11 8 171 -49 315 -69 174 -224 383 -285 383 -16 0 -6 -16 47
-77z"/>
<path d="M3372 4509 c10 -54 108 -345 148 -436 21 -49 47 -75 37 -35 -3 9 -13
53 -22 97 -28 130 -142 425 -165 425 -4 0 -3 -23 2 -51z"/>
<path d="M2560 4373 c-87 -99 -196 -310 -188 -364 2 -15 40 40 126 184 67 113
122 211 122 216 0 22 -19 10 -60 -36z"/>
<path d="M2773 4267 c-51 -68 -113 -175 -149 -259 -45 -104 -134 -384 -134
-420 0 -76 46 7 94 169 48 160 93 270 155 378 76 133 98 215 34 132z"/>
<path d="M2310 3910 c-34 -34 -50 -83 -59 -183 -5 -51 -17 -111 -26 -134 l-17
-43 71 -116 c39 -65 70 -119 68 -121 -4 -3 -84 80 -130 136 -15 18 -29 32 -32
30 -7 -8 76 -138 122 -189 65 -73 140 -130 169 -130 22 0 16 12 -74 148 -113
168 -142 221 -142 257 0 14 18 100 40 192 22 91 38 168 36 170 -2 3 -14 -5
-26 -17z"/>
<path d="M2965 3908 c-2 -7 -10 -78 -17 -158 l-14 -146 -97 -179 c-53 -99 -99
-189 -103 -200 -3 -11 21 9 54 45 32 36 85 85 116 110 38 31 54 50 50 60 -3 8
-10 30 -14 48 -7 27 -5 32 11 32 15 0 19 -7 19 -40 0 -22 4 -40 9 -40 15 0 61
127 71 198 12 86 12 102 0 102 -5 0 -10 -7 -10 -16 0 -40 -43 -195 -51 -187
-6 6 -5 68 1 159 6 82 12 166 13 187 2 30 -1 37 -16 37 -9 0 -19 -6 -22 -12z"/>
<path d="M4525 3905 c47 -142 62 -310 30 -345 -10 -11 -25 -20 -33 -20 -12 0
-13 -9 -6 -47 5 -27 9 -104 8 -173 0 -142 -15 -211 -70 -326 -19 -40 -34 -82
-34 -95 0 -22 0 -22 21 -4 33 31 98 174 115 255 11 53 14 102 10 168 -5 81 -2
102 19 170 33 101 40 174 25 247 -12 61 -45 133 -75 170 l-17 20 7 -20z"/>
<path d="M1986 3770 c-91 -193 -158 -512 -130 -617 12 -44 21 -22 28 62 11
146 87 479 116 509 26 26 24 -16 -5 -137 -63 -255 -100 -541 -75 -572 24 -28
30 -15 30 63 0 93 18 205 70 448 42 193 48 273 25 314 -13 25 -14 23 -59 -70z"/>
<path d="M2120 3818 c0 -19 9 -62 21 -96 13 -39 19 -72 14 -89 l-6 -27 -25 30
-25 29 7 -45 c13 -86 28 -125 51 -128 20 -3 21 0 16 32 -4 23 0 44 9 58 8 13
18 53 21 91 6 62 5 67 -14 67 -21 0 -21 1 -35 64 -12 51 -34 60 -34 14z"/>
<path d="M3877 3793 c-18 -17 -2 -70 52 -181 54 -109 75 -141 86 -130 6 6
-117 318 -125 318 -4 0 -10 -3 -13 -7z"/>
<path d="M3820 3626 c0 -46 17 -106 30 -106 9 0 20 25 20 48 0 23 -33 102 -42
102 -5 0 -8 -20 -8 -44z"/>
<path d="M4209 3493 c-1 -127 -5 -128 -84 -24 -39 50 -73 91 -77 91 -14 0 -19
-40 -7 -62 6 -13 29 -42 50 -65 22 -24 39 -49 39 -56 0 -22 -22 -37 -56 -37
-70 0 -112 -77 -67 -121 19 -19 20 -19 107 1 48 11 98 20 112 20 41 0 91 -29
107 -62 l15 -31 7 32 c8 39 19 39 35 2 6 -16 22 -39 36 -52 l24 -22 0 32 c0
17 -11 53 -24 79 -53 105 -72 225 -40 257 19 19 11 65 -11 65 -28 0 -46 -48
-55 -142 -5 -51 -10 -106 -10 -122 0 -24 -2 -27 -15 -16 -25 21 -45 109 -45
196 0 91 -5 114 -26 114 -11 0 -14 -18 -15 -77z m-58 -198 c38 -20 31 -31 -33
-50 -89 -26 -112 -19 -87 26 20 38 72 48 120 24z"/>
<path d="M3886 3538 c-21 -30 -20 -45 4 -51 24 -6 44 24 35 53 -8 26 -20 25
-39 -2z"/>
<path d="M2077 3515 c-28 -99 -47 -273 -48 -446 0 -150 7 -199 31 -199 15 0
29 100 29 206 0 110 13 207 37 293 18 61 13 95 -20 136 -21 27 -24 27 -29 10z"/>
<path d="M1789 3458 c-48 -66 -35 -281 28 -482 43 -139 87 -222 147 -280 53
-52 45 -70 -9 -20 -30 28 -35 29 -35 9 0 -24 65 -89 117 -117 53 -29 123 -46
123 -30 0 11 -66 72 -79 72 -5 0 -11 13 -14 28 -3 15 -36 68 -73 117 -78 104
-136 222 -165 332 -24 95 -34 257 -21 338 5 33 9 61 7 63 -2 2 -13 -12 -26
-30z"/>
<path d="M4600 3449 c0 -9 7 -60 15 -115 19 -123 19 -239 0 -324 -16 -72 -20
-160 -7 -160 5 0 19 33 32 73 47 150 34 466 -21 522 -15 16 -19 17 -19 4z"/>
<path d="M3290 3330 c-91 -9 -175 -32 -249 -70 -65 -33 -141 -95 -141 -116 0
-18 -3 -19 71 15 35 17 100 40 144 52 108 29 133 41 72 33 -26 -3 -73 -14
-103 -25 -75 -25 -56 -2 29 37 55 25 76 28 188 32 74 3 149 0 180 -7 66 -14
139 -41 139 -51 0 -5 -27 -11 -60 -15 -33 -4 -60 -11 -60 -16 0 -4 19 -13 42
-20 44 -11 106 -6 140 12 19 10 19 12 -13 46 -76 79 -201 109 -379 93z"/>
<path d="M3187 3174 c-72 -17 -264 -92 -273 -106 -16 -26 187 -196 273 -228
89 -34 188 -24 296 28 197 96 211 135 81 228 -128 91 -233 113 -377 78z m217
-119 c39 -19 124 -90 116 -97 -3 -3 -36 -17 -75 -33 -74 -29 -177 -42 -239
-31 -75 14 -125 90 -76 116 17 9 22 7 30 -14 10 -27 57 -56 90 -56 11 0 32 12
47 26 22 22 25 32 21 74 l-5 48 27 -8 c15 -4 44 -16 64 -25z"/>
<path d="M4037 3154 c-108 -26 -147 -59 -147 -125 0 -43 34 -90 82 -115 58
-30 165 -46 224 -34 118 25 177 130 124 218 -41 66 -151 88 -283 56z m172 -69
c33 -16 41 -33 41 -79 0 -63 -55 -85 -167 -66 -72 12 -133 40 -133 62 0 7 5
20 10 28 8 12 14 10 37 -17 37 -43 71 -50 106 -23 22 18 27 30 27 66 0 41 2
44 25 44 15 0 39 -7 54 -15z"/>
<path d="M3948 2858 c-3 -55 6 -88 46 -163 53 -98 60 -124 46 -176 -9 -31 -19
-44 -46 -57 -34 -16 -39 -15 -123 7 -94 24 -128 22 -157 -11 -16 -16 -16 -21
-4 -28 19 -12 37 -12 75 -1 21 6 51 3 99 -9 72 -19 106 -16 153 15 35 23 66
98 58 138 -9 43 -127 307 -137 307 -4 0 -9 -10 -10 -22z"/>
<path d="M2832 2763 c4 -42 18 -52 36 -23 15 24 0 60 -24 60 -11 0 -14 -9 -12
-37z"/>
<path d="M3574 2494 c-15 -58 54 -134 120 -134 l30 0 -40 34 c-22 19 -51 55
-65 80 -28 53 -36 56 -45 20z"/>
<path d="M3928 2195 c-2 -3 -49 -6 -104 -9 -90 -3 -110 -7 -219 -51 -66 -26
-131 -51 -144 -56 -23 -9 -23 -10 25 -45 27 -19 87 -54 134 -76 73 -36 95 -42
166 -46 60 -3 95 0 133 13 60 20 131 81 131 114 0 20 -3 19 -52 -14 -94 -62
-217 -79 -329 -45 -46 13 -104 52 -98 65 2 6 69 10 169 11 156 0 294 16 314
35 10 9 -40 33 -52 25 -20 -12 -243 -26 -297 -18 l-60 9 37 16 c26 12 65 17
128 17 49 0 110 5 135 12 43 12 49 11 94 -15 27 -14 51 -24 54 -21 12 12 -17
54 -48 69 -31 14 -106 21 -117 10z"/>
<path d="M3577 1823 c-12 -12 -7 -51 7 -56 15 -6 29 6 39 35 7 21 -30 38 -46
21z"/>
<path d="M2696 1653 c-17 -18 2 -50 83 -140 143 -159 325 -312 346 -292 3 3
-91 103 -209 221 -118 119 -217 214 -220 211z"/>
<path d="M2490 1544 c0 -2 47 -67 104 -144 57 -77 139 -192 181 -255 42 -63
81 -115 86 -115 22 0 5 46 -43 118 -72 108 -226 319 -260 357 -23 27 -68 53
-68 39z"/>
<path d="M2444 1496 c-3 -8 1 -27 10 -43 29 -54 292 -427 304 -431 49 -16 -31
116 -262 436 -41 57 -44 59 -52 38z"/>
<path d="M3305 841 c-8 -28 2 -126 22 -206 20 -81 87 -208 129 -245 34 -29 79
-48 91 -36 3 3 -21 34 -54 70 -89 95 -124 178 -138 328 -4 42 -13 76 -24 90
l-18 22 -8 -23z"/>
<path d="M2587 840 c-45 -8 -55 -16 -38 -33 16 -16 185 -17 201 -1 22 22 -98
47 -163 34z"/>
<path d="M2686 745 c-141 -36 -281 -142 -380 -288 -31 -45 -56 -87 -56 -93 0
-6 36 -11 95 -13 81 -2 95 0 95 14 0 32 53 120 102 167 136 133 335 184 481
124 80 -33 158 -96 244 -197 40 -47 84 -91 98 -97 66 -30 60 -4 -24 94 -87
103 -213 204 -318 256 -77 38 -89 41 -180 44 -64 2 -118 -2 -157 -11z"/>
</g>
</svg>
