<?xml version="1.0" standalone="no"?>
<!DOCTYPE svg PUBLIC "-//W3C//DTD SVG 20010904//EN"
 "http://www.w3.org/TR/2001/REC-SVG-20010904/DTD/svg10.dtd">
<svg version="1.0" xmlns="http://www.w3.org/2000/svg"
 width="512.000000pt" height="512.000000pt" viewBox="0 0 512.000000 512.000000"
 preserveAspectRatio="xMidYMid meet">

<g transform="translate(0.000000,512.000000) scale(0.100000,-0.100000)"
fill="#000000" stroke="none">
<path d="M2480 4610 l0 -230 80 0 80 0 0 230 0 230 -80 0 -80 0 0 -230z"/>
<path d="M2025 4745 c-37 -15 -59 -28 -57 -37 7 -30 145 -404 152 -411 7 -8
116 28 133 43 7 6 -59 202 -140 418 -7 16 -16 14 -88 -13z"/>
<path d="M2936 4559 c-42 -117 -75 -214 -72 -216 3 -3 34 -16 71 -29 l66 -24
10 28 c24 62 138 378 141 391 3 12 -97 59 -128 60 -6 1 -46 -94 -88 -210z"/>
<path d="M3166 4025 l-6 -25 -815 0 -815 0 0 -34 0 -33 -173 -62 c-95 -34
-179 -66 -187 -71 -11 -7 -9 -21 9 -79 12 -39 26 -71 30 -71 4 0 74 25 156 55
81 30 149 55 151 55 2 0 4 -198 4 -439 0 -353 -3 -440 -13 -444 -7 -3 -74 40
-147 94 -74 54 -138 99 -142 99 -8 0 -17 -29 -54 -190 -14 -63 -30 -122 -34
-130 -6 -11 -54 -22 -174 -39 -91 -13 -166 -28 -166 -33 0 -4 38 -70 85 -147
47 -76 85 -142 85 -146 0 -4 -45 -68 -100 -143 -70 -95 -97 -138 -88 -142 7
-4 84 -24 171 -44 91 -22 157 -42 157 -49 1 -30 49 -319 54 -324 3 -4 71 33
151 82 l145 88 35 -24 35 -24 -2 -284 -3 -284 -26 -9 c-22 -7 -31 -3 -65 28
-53 51 -145 109 -209 133 -74 28 -198 43 -271 33 l-61 -8 -251 692 c-139 380
-252 694 -252 697 0 3 20 17 44 31 63 37 166 152 203 229 48 95 66 183 61 298
l-4 96 181 66 c115 41 181 70 183 80 2 8 -9 43 -24 76 -21 47 -32 60 -43 56
-9 -4 -232 -85 -495 -181 -264 -96 -481 -176 -482 -177 -6 -6 955 -2632 964
-2635 5 -1 282 96 616 218 l606 220 328 0 329 0 619 -225 c340 -124 635 -232
655 -240 l37 -14 281 773 c154 426 281 776 281 779 0 3 -16 11 -35 17 -19 6
-35 12 -35 13 0 1 11 31 24 67 21 56 27 65 48 64 12 -1 30 -4 38 -8 12 -5 48
84 187 466 95 260 171 473 170 474 -4 4 -1929 704 -1937 704 -4 0 -11 -11 -14
-25z m268 -229 c81 -30 150 -57 153 -60 10 -10 -39 -76 -80 -110 -52 -42 -117
-75 -182 -92 -54 -15 -161 -19 -168 -6 -7 11 107 322 118 322 6 0 77 -24 159
-54z m-1404 26 c0 -38 -69 -160 -119 -210 -48 -48 -144 -103 -203 -116 l-28
-6 0 175 0 175 175 0 c161 0 175 -1 175 -18z m1060 9 c0 -13 -281 -785 -289
-793 -3 -3 -41 3 -83 15 l-78 22 0 118 0 118 -77 -3 -78 -3 -3 -115 -3 -115
-87 -28 c-48 -16 -91 -31 -97 -33 -5 -2 -34 40 -63 94 -29 53 -57 103 -61 111
-8 12 -21 8 -75 -20 -36 -19 -66 -37 -66 -41 0 -4 28 -58 61 -119 l62 -111
-64 -57 c-85 -74 -141 -134 -195 -204 l-44 -59 48 -61 c62 -82 162 -182 242
-243 81 -61 215 -129 287 -145 30 -7 52 -17 50 -23 -38 -101 -256 -705 -259
-715 -2 -8 27 -24 87 -46 l90 -34 -101 0 -101 -1 -12 55 c-35 156 -169 322
-316 392 -43 20 -101 42 -129 48 l-51 11 -3 137 -3 137 -74 0 -75 0 0 -60 c0
-61 -8 -72 -30 -45 -26 32 -49 27 -139 -29 l-89 -55 -11 82 c-21 147 -10 132
-114 157 -51 13 -97 25 -104 29 -7 4 11 36 51 92 l63 86 -54 87 c-29 48 -51
90 -49 95 3 4 50 13 105 20 l100 13 22 94 c13 52 26 100 30 106 5 8 32 -7 83
-46 86 -64 101 -72 111 -57 20 33 25 -5 25 -199 l0 -210 75 0 75 0 0 525 0
525 28 6 c131 29 240 89 329 182 62 65 126 184 143 267 l11 55 450 0 c255 0
449 -4 449 -9z m1011 -283 l336 -122 -5 -96 c-7 -164 42 -305 145 -420 29 -32
53 -62 53 -67 0 -12 -518 -1434 -525 -1441 -3 -3 -34 -9 -69 -13 -122 -15
-244 -73 -333 -157 l-45 -43 -321 117 c-177 64 -345 125 -374 136 -48 18 -53
22 -58 56 -15 102 -30 153 -61 220 -39 82 -129 185 -205 233 l-48 32 28 76
c15 42 128 354 252 693 l224 617 85 -5 c108 -8 209 13 308 62 83 40 190 134
229 201 13 23 30 43 36 43 7 0 163 -55 348 -122z m-3571 -221 c0 -94 -28 -179
-86 -257 -38 -52 -118 -120 -128 -109 -6 8 -117 322 -114 324 7 6 304 114 316
114 8 1 12 -20 12 -72z m4229 -14 c86 -31 157 -57 159 -58 5 -4 -113 -325
-120 -325 -3 0 -26 15 -50 33 -53 40 -118 134 -141 206 -17 52 -24 201 -10
201 3 0 77 -26 162 -57z m-2058 -418 l46 -16 -51 -141 c-50 -138 -51 -140 -54
-94 l-3 46 -80 0 -79 0 0 -75 0 -75 71 0 c53 0 70 -3 67 -12 -3 -7 -22 -62
-43 -122 l-38 -108 -39 6 c-126 20 -318 143 -420 269 l-31 39 79 80 c112 113
233 190 344 218 49 13 176 5 231 -15z m-68 -1145 c52 -58 95 -151 108 -231 10
-62 5 -129 -9 -129 -4 0 -78 25 -164 56 l-156 57 10 26 c5 14 29 80 53 146 24
66 46 128 50 137 7 17 9 17 37 0 17 -9 48 -37 71 -62z m-807 -116 c87 -51 176
-170 199 -266 l7 -28 -176 0 -176 0 0 174 0 175 53 -16 c28 -8 71 -26 93 -39z
m-745 -374 c111 -21 236 -100 281 -178 21 -35 39 -24 -161 -97 -135 -49 -146
-51 -154 -32 -87 233 -108 300 -96 308 19 12 65 11 130 -1z m3097 -34 c3 -3
-103 -308 -112 -323 -1 -1 -61 20 -314 112 -10 4 -9 12 5 36 45 77 175 160
280 179 44 8 131 5 141 -4z"/>
<path d="M3900 2813 c-1 -159 -32 -248 -118 -336 -89 -91 -195 -133 -316 -124
-100 7 -167 36 -271 117 l-90 71 -3 -113 c-4 -142 9 -211 60 -317 112 -233
374 -361 630 -306 203 43 373 204 434 410 23 81 23 221 0 299 -24 80 -66 162
-111 217 -36 43 -193 178 -207 179 -5 0 -8 -44 -8 -97z m180 -385 c48 -264
-201 -516 -465 -471 -86 15 -165 52 -223 107 -45 42 -110 141 -99 152 2 2 33
-2 68 -11 249 -58 513 65 633 295 l39 74 18 -42 c10 -23 23 -70 29 -104z"/>
<path d="M2115 819 c-3 -8 -38 -105 -79 -216 l-73 -203 51 -18 c84 -32 93 -34
98 -20 75 197 148 410 143 417 -3 5 -29 17 -58 27 -28 9 -58 19 -64 21 -7 3
-15 -1 -18 -8z"/>
<path d="M2932 805 c-35 -13 -65 -25 -68 -28 -9 -8 148 -427 160 -426 6 0 38
10 71 23 40 14 59 27 57 37 -5 24 -144 404 -151 411 -3 3 -34 -4 -69 -17z"/>
<path d="M2480 510 l0 -230 80 0 80 0 0 230 0 230 -80 0 -80 0 0 -230z"/>
</g>
</svg>
